<svg enable-background="new 0 0 36 36" viewBox="0 0 36 36" xmlns="http://www.w3.org/2000/svg"><path d="m0 0h36v36c-11.88 0-23.76 0-36 0 0-11.88 0-23.76 0-36z" fill="#1e1e1f"/><path d="m0 0h7.56c-.18.14-.18.14-.24.19-.16.13-.28.28-.4.45-.04.06-.08.11-.12.17-.02.03-.04.06-.06.09-.1.14-.2.28-.31.42-.04.05-.08.11-.12.16-.02.03-.04.06-.06.09-.08.11-.16.22-.25.33-.04.06-.08.11-.12.17-.1.14-.2.28-.3.41-.22.3-.44.59-.66.88-.02.03-.05.06-.07.1-.11.14-.22.29-.34.43-.03.04-.03.04-.06.08-.04.05-.07.1-.11.14-.28.36-.44.71-.54 1.16-.02.05-.03.11-.04.16-.03.12-.06.25-.09.37-.05.23-.11.46-.16.69-.13.55-.26 1.1-.39 1.65-.03.09-.05.17-.07.25-.04.17-.08.35-.12.52 0 .03-.01.05-.02.08-.07.29-.14.58-.2.87-.14.6-.29 1.21-.43 1.81-.15.59-.28 1.19-.42 1.78-.13.58-.27 1.16-.41 1.75-.22.9-.43 1.8-.64 2.7-.03.12-.06.24-.08.36-.02.08-.04.16-.06.25-.06.25-.12.49-.18.74-.01.02-.01.05-.02.07-.03.11-.05.21-.08.32-.25.96-.21 1.94-.2 2.92v.58.63.27.37.11c0 .29.07.52.28.73.02.02.04.04.07.06.06.06.11.12.17.18.18.2.37.39.56.58.41.41.41.41.54.56.11.13.23.25.35.37l.06.06c.08.08.17.17.25.25.06.06.12.12.19.18l.06.06c.05.05.09.09.13.14v.07h.07c.05.05.05.05.11.12.15.18.32.35.49.51.19.19.37.37.55.57.42.48 1.09.88 1.74.94.77.05 1.47-.13 2.07-.63.04-.03.04-.03.09-.07.46-.38.76-.94 1.08-1.42.14-.21.28-.41.43-.62.12-.16.23-.33.34-.49.17-.25.35-.51.52-.76.25-.36.49-.71.74-1.07.02-.02.03-.04.05-.07.04-.06.08-.12.12-.18.02-.03.04-.06.07-.1.09-.14.1-.26.08-.43-.07-.16-.14-.26-.29-.35-.25-.07-.47-.02-.72.03-.03.01-.07.01-.1.02-.1.02-.21.04-.31.07-.07.01-.14.03-.21.04-.03.01-.07.01-.1.02-.07.01-.13.03-.2.04-.15.03-.3.06-.44.1-.3.08-.49.06-.76-.09-.04-.02-.08-.05-.12-.07s-.09-.05-.13-.07c-.09-.05-.17-.1-.26-.15-.18-.11-.37-.21-.55-.31-.07-.04-.14-.08-.21-.11-.14-.07-.27-.15-.41-.22-.41-.22-.82-.45-1.23-.68-.2-.11-.4-.22-.6-.33-.04-.02-.08-.04-.12-.06-.07-.04-.15-.08-.22-.12-.05-.03-.05-.03-.1-.05-.04-.02-.04-.02-.09-.05-.07-.04-.12-.09-.18-.15.01-.02.02-.04.02-.06.1-.32.15-.74.05-1.06-.03-.27.06-.46.18-.7.03-.06.06-.13.09-.19.02-.04.04-.09.06-.13.11-.24.21-.48.31-.72.55-1.29 1.12-2.57 1.69-3.84.35-.77.69-1.54 1.03-2.31.09-.2.17-.4.26-.59.22-.5.44-1 .66-1.51.2-.48.4-.94.6-1.4.01-.03.03-.06.04-.09.02-.06.05-.11.07-.17.07-.16.14-.31.2-.47.14.05.25.12.37.2.04.03.08.05.12.08s.08.06.12.08c.09.06.17.12.26.17.02.01.04.03.06.04.24.16.48.31.73.46.03.02.06.04.09.06s.05.03.08.05c.16.12.25.29.33.47.01.02.02.05.03.07.02.05.05.1.07.15.06.14.13.27.19.4.01.03.03.06.04.08.13.27.26.54.39.81.04.09.09.18.13.27.01.02.02.04.03.07.1.2.19.4.29.6.02.03.03.06.05.1.03.06.06.13.09.19.06.13.13.27.19.4.03.07.07.14.1.21.1.2.19.4.29.6.06.11.11.22.17.34.03.06.06.11.08.17.04.08.08.15.12.23.01.02.02.05.04.07.07.15.09.24.04.4-.03.07-.06.14-.09.21-.02.04-.04.08-.06.12-.01.02-.02.04-.03.06-.05.11-.1.23-.16.34-.02.04-.02.04-.03.07-.11.23-.21.47-.31.71-.03.06-.06.13-.08.19-.03.08-.07.16-.1.24-.04.08-.07.17-.11.25-.15.33-.19.63-.18.99v.17.45.48.8.92.98.28.44.16c0 .71.18 1.37.66 1.92.48.45 1.06.72 1.72.73h.09.28.19c.17 0 .34 0 .51.01.17 0 .35 0 .52.01.34 0 .68.01 1.01.01v.91c-.17 0-.17 0-.35 0-.38 0-.77 0-1.15.01-.23 0-.47 0-.7 0s-.45 0-.68 0c-.09 0-.17 0-.26 0-1.27 0-2.37.27-3.32 1.16-.33.34-.58.72-.79 1.14-.02.04-.04.08-.06.12-.48 1.02-.48 2.24-.1 3.3.23.61.54 1.12 1.01 1.58l.1.1c.5.48 1.19.83 1.87.96.03.01.06.01.09.02.39.06.77.06 1.17.06h.23.64.62 1.42 1.09.16.24 2.21.08.42.08.17 2.63 2.96.32.08 1.17 1.33.68.62.22c.53 0 1-.04 1.51-.21.04-.01.04-.01.08-.03.45-.16.85-.38 1.22-.69.05-.04.05-.04.11-.09.52-.45.86-1.01 1.11-1.64.05-.13.05-.13.12-.27v3.9c-11.88 0-23.76 0-36 0 .01-11.85.01-23.73.01-35.97z" fill="#fdfdfd"/><path d="m8.89 0h27.11v29.53c-.06-.08-.09-.15-.13-.24-.23-.59-.52-1.07-.96-1.52-.02-.03-.05-.05-.07-.08-.63-.67-1.59-1.02-2.5-1.08-.17-.01-.33-.01-.5-.01-.05 0-.1 0-.15 0-.13 0-.26 0-.39 0-.14 0-.27 0-.41 0-.26 0-.52 0-.78 0-.29 0-.59 0-.88-.01-.61 0-1.21-.01-1.82-.01 0-.3 0-.6 0-.91h.23c.72 0 1.43 0 2.15-.01h1.1.96.51.48.18c.7 0 1.35-.18 1.87-.67.53-.53.75-1.19.76-1.93 0-.05 0-.1 0-.15s0-.11 0-.16c0-.14 0-.29 0-.43 0-.12 0-.24 0-.36 0-.28 0-.57 0-.85 0-.29 0-.58 0-.87 0-.25 0-.5 0-.75 0-.15 0-.3 0-.45 0-.14 0-.28 0-.42 0-.05 0-.1 0-.15 0-.28 0-.5-.16-.73-.09-.06-.18-.1-.28-.14-.03-.01-.06-.02-.09-.03-.1-.03-.2-.07-.3-.1-.06-.02-.06-.02-.11-.04-.12-.04-.24-.08-.36-.12-.08-.03-.16-.05-.23-.08-.2-.06-.4-.13-.6-.19-.15-.05-.29-.09-.44-.14-.26-.08-.52-.17-.79-.25-.01-.42-.02-.83-.02-1.25 0-.19-.01-.39-.01-.58s-.01-.37-.01-.56c0-.07 0-.14 0-.21-.02-.54-.02-.54.09-.69.11-.11.24-.18.38-.26.06-.04.11-.08.17-.12.05-.04.1-.07.15-.11.03-.02.05-.04.08-.06.12-.08.23-.17.35-.25.03-.02.07-.05.1-.07.04-.03.04-.03.09-.06.13-.11.21-.22.23-.4 0-.05 0-.09 0-.14 0-.03 0-.05 0-.08 0-.08 0-.16 0-.25 0-.06 0-.11 0-.17 0-.12 0-.24 0-.36 0-.15 0-.31 0-.46 0-.12 0-.24 0-.36 0-.06 0-.11 0-.17 0-.08 0-.16 0-.24 0-.05 0-.09 0-.14-.03-.18-.09-.32-.24-.44-.18-.08-.32-.08-.51-.04-.18.09-.33.21-.49.33-.13.1-.26.19-.39.28-.03.02-.05.04-.08.06-.19.14-.38.27-.58.4-.25.17-.49.34-.73.52-.18.13-.36.26-.53.38-.04.03-.04.03-.07.05-.13.09-.26.18-.39.27-.03.02-.05.04-.08.06-.05.04-.1.07-.15.11-.22.15-.4.3-.48.57-.02.14-.02.29-.02.43v.13.35.37.7.87c0 .52-.01 1.03-.01 1.55-1.13 0-2.25 0-3.41 0 0-.34 0-.69 0-1.04 0-.22 0-.44 0-.66 0-.35 0-.69 0-1.04 0-.25 0-.51 0-.76 0-.13 0-.27 0-.4s0-.25 0-.38c0-.07 0-.14 0-.2-.01-.64-.24-1.23-.7-1.68-.51-.48-1.11-.71-1.81-.7-.05 0-.1 0-.15 0s-.11 0-.16 0c-.11 0-.23 0-.34.01-.18 0-.36.01-.54.01-.03 0-.06 0-.09 0-.06 0-.12 0-.19 0-.42 0-.83.01-1.25.02-.28.01-.56.01-.84.01-.15 0-.3 0-.45.01-.9.03-.9.03-1.14-.14-.16-.16-.26-.34-.35-.54-.08-.16-.18-.3-.29-.44-.13-.19-.27-.38-.4-.57-.04-.05-.04-.05-.08-.11-.05-.07-.1-.14-.14-.21-.02-.03-.04-.06-.07-.1-.02-.03-.04-.06-.06-.09-.06-.09-.06-.09-.13-.15-.1-.11-.15-.17-.14-.32.02-.13.05-.26.07-.39.02-.09.04-.19.05-.28 0-.02.01-.05.01-.07.15-.82.01-1.67-.46-2.37-.12-.16-.25-.3-.38-.44-.03-.03-.05-.05-.08-.08-.45-.43-1.05-.68-1.59-.96-.31-.16-.62-.32-.93-.49-.24-.13-.48-.26-.72-.38-.27-.14-.55-.29-.82-.44-.35-.19-.7-.37-1.05-.56-.2-.1-.4-.21-.6-.32-.32-.22-.64-.29-1.02-.32 0-.02 0-.03 0-.04z" fill="#fff"/><path d="m14.11 27.66h.1.32.23.63.68 1.57.78 2.66.17.08.42.08 2.7 2.85.31.08 1.24 1.25.67.62.22c.54 0 1.12.02 1.6.29.02.01.05.02.07.04.77.42 1.32 1.12 1.57 1.96.17.65.16 1.47-.1 2.09-.01.02-.02.05-.03.07-.14.31-.3.58-.53.84-.02.02-.03.04-.05.06-.41.54-1.1.83-1.75.94-.15.02-.3.02-.46.02-.03 0-.06 0-.1 0-.11 0-.21 0-.32 0-.08 0-.15 0-.23 0-.21 0-.43 0-.64 0s-.41 0-.62 0c-.58 0-1.15 0-1.73 0-.16 0-.31 0-.47 0-.97 0-1.94 0-2.92 0-.23 0-.45 0-.68 0-.03 0-.06 0-.08 0-.91 0-1.81 0-2.72 0-.93 0-1.86 0-2.8 0-.13 0-.26 0-.4 0-.03 0-.05 0-.08 0-.42 0-.83 0-1.25 0s-.84 0-1.26 0c-.23 0-.45 0-.68 0-.21 0-.42 0-.62 0-.07 0-.15 0-.22 0-.99.01-1.72-.27-2.42-.95-.66-.68-.84-1.55-.83-2.47.02-.84.43-1.59 1.03-2.16.61-.5 1.29-.73 2.06-.73z" fill="#666768"/><path d="m17.55 10.82h.08.26.18.6.21.97 1.12.87.52.49.18c.49 0 .91.05 1.27.4.32.34.37.7.37 1.16v.16.43.47.81 1.17 1.9 1.84.11.57c0 1.58 0 3.15-.01 4.73-1.24 0-2.49.01-3.73.01-.15 0-.29 0-.44 0-.03 0-.06 0-.09 0-.47 0-.95 0-1.42 0-.49 0-.97 0-1.46 0-.3 0-.6 0-.9 0-.21 0-.41 0-.62 0-.12 0-.24 0-.36 0-.13 0-.26 0-.39 0-.04 0-.07 0-.11 0-.45 0-.76-.17-1.08-.47-.24-.25-.36-.56-.36-.91 0-.04 0-.08 0-.12 0-.07 0-.07 0-.13 0-.05 0-.09 0-.14 0-.13 0-.26 0-.38 0-.13 0-.27 0-.4 0-.25 0-.51 0-.76 0-.29 0-.58 0-.86 0-.59 0-1.18 0-1.78h.14 3.18.39.08 1.26 1.3.8.61.25.34.1c.22 0 .37-.06.55-.2.14-.15.15-.28.15-.48 0-.04 0-.04 0-.07 0-.08 0-.16 0-.24 0-.06 0-.11 0-.17 0-.19 0-.37 0-.56 0-.06 0-.13 0-.19 0-.3 0-.6 0-.91 0-.35 0-.7 0-1.05 0-.27 0-.54 0-.81 0-.16 0-.32 0-.48 0-.15 0-.3 0-.45 0-.06 0-.11 0-.17 0-.08 0-.15 0-.23 0-.06 0-.06 0-.13-.03-.19-.12-.3-.27-.41-.16-.09-.27-.1-.46-.1-.03 0-.05 0-.08 0-.09 0-.17 0-.26 0-.06 0-.12 0-.18 0-.17 0-.33 0-.5 0s-.35 0-.52 0c-.33 0-.66 0-.99 0-.38 0-.75 0-1.13-.01-.77 0-1.54-.01-2.32-.01.02-.06.03-.11.05-.17.01-.03.02-.06.03-.1.11-.33.38-.57.68-.73.24-.1.41-.14.65-.14z" fill="#ffd137"/><path d="m25.73 17.68c1.01-.01 2.02-.02 3.06-.04.47-.01.47-.01.95-.02h.77.1c1.08 0 2 .1 3 .55.23.1.47.17.7.24l.09.03c.03.01.06.02.08.03.06.02.06.02.1.06 0 .06 0 .13.01.19v.12.14.14.47.16.77.88.68.41.38.21c0 .45-.13.78-.44 1.1-.32.3-.62.39-1.05.39-.03 0-.06 0-.1 0-.11 0-.21 0-.32 0-.08 0-.15 0-.23 0-.21 0-.41 0-.62 0-.22 0-.43 0-.65 0-.41 0-.82 0-1.22 0-.55 0-1.1 0-1.65 0-.87 0-1.74 0-2.6 0 .02-2.27.02-4.54.02-6.89z" fill="#ffd137"/><path d="m8.09 1.07c.04 0 .08.01.11.02.04 0 .08.01.12.01.04.01.08.02.12.02.06.01.12.02.18.02.04.01.09.01.13.02.07.2.09.4.11.61 0 .04.01.07.01.11.02.11.03.23.04.34.01.08.01.16.02.25.02.21.04.41.06.62.01.1.02.22.03.33.03.35.07.7.1 1.05.02.2.04.4.06.59.01.12.02.24.02.35.01.07.02.13.03.19.03.35-.14.62-.29.92-.12.23-.22.46-.32.7-.02.05-.04.09-.06.13-.03.09-.07.17-.1.26-.09.21-.18.41-.27.62-.02.04-.02.04-.03.07-.25.58-.51 1.16-.76 1.75-.12.27-.24.54-.36.82-.04.08-.08.17-.12.26-.12.27-.24.55-.36.82-.26.6-.52 1.2-.79 1.79-.01.02-.02.05-.03.07-.12.28-.25.56-.38.85-.21.46-.41.92-.61 1.39-.12.28-.25.57-.37.85-.34.79-.68 1.57-1.01 2.37-.09-.03-.17-.07-.26-.11-.03-.01-.05-.02-.08-.04-.03-.01-.05-.02-.08-.04-.3-.1-.61-.12-.92-.11-.06 0-.06 0-.11 0-.09 0-.18 0-.27 0 .05-.32.12-.63.19-.94.01-.05.02-.1.04-.15.03-.13.06-.27.1-.4.03-.11.05-.22.08-.33.17-.7.34-1.4.52-2.09.12-.48.24-.97.34-1.45.08-.34.16-.69.24-1.03.02-.07.03-.14.05-.22.08-.34.16-.68.25-1.02.09-.33.17-.66.24-1 .06-.28.13-.56.2-.85.01-.05.02-.1.04-.16.03-.11.05-.21.08-.32.07-.28.13-.56.2-.84 0-.02 0-.02.01-.07.1-.44.21-.87.31-1.31.02-.09.04-.18.06-.27.06-.25.11-.5.16-.75.09-.46.2-.76.52-1.11.1-.1.18-.22.26-.33.04-.05.07-.09.11-.14.15-.19.28-.38.42-.56s.27-.37.41-.55c.19-.24.36-.48.54-.71.16-.21.31-.42.47-.63.03-.04.03-.04.06-.09.04-.05.08-.11.12-.16.05-.06.09-.12.13-.17.15-.22.15-.22.29-.25z" fill="#ffd137"/><path d="m2.66 20.11c.18.11.3.27.4.46.02.34.01.62-.11.95-.06.19-.12.43-.03.62.08.11.15.15.27.21l.06.03c.07.04.13.07.2.11.05.02.09.05.14.08.12.06.23.13.35.19.17.09.33.18.5.27.03.02.07.04.1.06.23.13.47.26.7.39.36.2.72.4 1.08.59.04.02.09.05.13.07.02.01.04.02.07.04.29.15.58.31.86.47.19.1.38.2.56.31.06.03.06.03.11.06.03.02.07.04.1.06s.06.03.09.05c.27.15.57.07.86 0 .06-.01.12-.03.18-.04l.08-.02c.08-.01.14 0 .22.03-.19.29-.38.57-.57.85-.01.01-.04.05-.07.09-.16.23-.31.46-.47.68-.11.17-.23.33-.34.5-.11.16-.22.32-.33.48-.02.03-.04.05-.05.08-.34.49-.67.82-1.25 1.01-.47.04-.92.05-1.3-.26-.11-.1-.21-.2-.32-.3-.04-.04-.07-.07-.11-.11-.15-.14-.29-.29-.42-.44-.16-.18-.33-.35-.5-.52-.36-.35-.36-.35-.49-.5-.19-.22-.4-.42-.6-.62-.08-.08-.17-.17-.25-.25-.03-.03-.03-.03-.06-.06-.1-.1-.19-.2-.28-.31-.1-.11-.2-.19-.33-.27-.31-.22-.56-.45-.62-.84-.07-.53-.04-1.08-.02-1.61.01-.18.01-.36.01-.54 0-.21.01-.43.01-.64 0-.04 0-.08 0-.12 0-.11.01-.23.01-.34 0-.03 0-.07 0-.1.01-.3.11-.55.33-.75.29-.24.77-.25 1.1-.1z" fill="#666768"/><path d="m15.99 13.07h.13.07.24.17.47.49.93 1.26 1.98v4.46c-2.56 0-5.13 0-7.77 0 .12-.36.12-.36.18-.5.02-.05.02-.05.04-.1.02-.03.03-.07.05-.11s.03-.07.05-.11c.05-.12.11-.24.16-.36.04-.08.07-.17.11-.25.07-.17.15-.34.22-.51.09-.21.18-.42.28-.64.13-.3.26-.6.39-.9.03-.07.06-.14.09-.21.06-.13.11-.25.17-.38.02-.05.02-.05.05-.11.02-.05.02-.05.04-.1.01-.03.02-.06.04-.08.04-.09.04-.09.16-.1z" fill="#8fcfd5"/><path d="m10.23 4.85c.22.06.4.18.58.3.08.05.15.1.23.14l.06.04c.23.14.46.28.68.42.02.01.04.03.06.04.14.08.28.17.42.25.05.03.05.03.09.06.41.25.82.49 1.23.74.36.21.72.43 1.07.64.17.1.34.2.51.3.05.03.05.03.1.06.06.03.12.07.18.1.29.17.47.41.65.69.15.22.3.43.45.65.02.03.04.05.06.08.1.14.1.14.21.28.05.07.05.07.05.17-.04.01-.07.03-.11.04-.69.28-1.18.71-1.52 1.38-.06.15-.1.29-.11.44-.05.47-.2.87-.39 1.3-.03.06-.06.13-.08.19-.07.16-.14.31-.21.47-.02 0-.05 0-.07 0-.02-.04-.03-.07-.05-.11-.3-.65-.6-1.3-.91-1.95-.02-.04-.02-.04-.03-.07-.02-.04-.02-.04-.03-.07-.02-.05-.05-.1-.07-.15-.01-.02-.02-.05-.03-.07-.11-.23-.21-.45-.32-.68-.03-.06-.06-.13-.09-.19-.09-.2-.19-.4-.28-.61-.04-.1-.09-.19-.13-.29-.02-.05-.04-.09-.06-.14-.11-.26-.21-.46-.45-.62-.03-.02-.06-.04-.08-.06-.1-.06-.2-.12-.3-.19-.05-.03-.05-.03-.11-.07-.1-.06-.2-.12-.29-.18-.1-.06-.2-.13-.31-.19-.12-.07-.24-.14-.35-.22-.24-.14-.47-.29-.7-.44.02-.13.06-.24.12-.38.02-.04.04-.08.06-.13.03-.07.06-.13.09-.2.03-.06.06-.13.09-.19.02-.04.03-.08.05-.11.06-.14.08-.27.08-.42 0-.03 0-.05 0-.08s0-.06 0-.09 0-.06 0-.09c0-.26-.02-.52-.04-.79z" fill="#ffd137"/><g fill="#1e1e1f"><path d="m26.79 28.9c.48.37.8.88.92 1.48.01.14.02.28.01.42v.11c-.01.61-.23 1.19-.68 1.62-.31.28-.66.46-1.06.59-.03.01-.05.02-.08.03-.6.17-1.25.01-1.78-.28-.55-.33-.92-.86-1.1-1.48-.12-.64-.05-1.27.29-1.83.27-.39.61-.69 1.03-.9.02-.01.04-.02.06-.03.76-.34 1.73-.19 2.39.27z"/><path d="m32.61 28.87c.5.38.84.88.96 1.51.02.15.02.3.02.45v.12c-.01.32-.05.58-.19.87-.01.03-.03.06-.04.09-.3.6-.82.95-1.43 1.18-.55.17-1.21.12-1.73-.14-.61-.33-1.02-.82-1.22-1.48-.15-.58-.1-1.26.2-1.78.07-.12.16-.24.24-.36.02-.02.03-.05.05-.07.74-.95 2.21-1.05 3.14-.39z"/><path d="m14.35 28.5h.11c.36 0 .68.08 1 .25.04.02.04.02.07.04.22.11.39.26.56.43l.06.06c.5.55.57 1.19.54 1.9-.04.59-.39 1.08-.81 1.47-.59.48-1.27.57-2 .49-.57-.11-1.11-.49-1.44-.97-.35-.58-.51-1.25-.34-1.92.19-.64.56-1.16 1.15-1.49.39-.19.69-.26 1.1-.26z"/><path d="m21.26 28.91c.46.37.78.86.89 1.43.01.16.02.31.02.47v.13c-.01.29-.03.54-.16.81-.01.03-.03.07-.04.11-.23.53-.7.94-1.23 1.16-.62.23-1.26.21-1.87-.05-.54-.26-.97-.72-1.18-1.28-.22-.67-.21-1.36.11-2 .34-.58.87-.99 1.51-1.16.66-.15 1.39-.03 1.95.38z"/></g><path d="m9.95 1.62c.7.34 1.39.7 2.08 1.08.23.12.45.24.68.36.3.16.6.32.9.48.17.1.35.19.52.28.64.33 1.11.72 1.34 1.42.11.45.01.92-.07 1.37-.22-.08-.41-.2-.61-.31-.04-.02-.08-.04-.12-.07-.04-.02-.07-.04-.11-.07-.03-.02-.07-.04-.1-.06-.02-.02-.05-.04-.07-.06 0-.11 0-.11.05-.16.03-.03.03-.03.07-.06.13-.12.23-.23.24-.42-.01-.18-.06-.31-.18-.45-.11-.07-.21-.08-.35-.08-.04 0-.07 0-.11 0-.23.03-.36.19-.51.36-.03.03-.06.07-.09.1-.02.03-.05.05-.07.08-.38-.17-.73-.39-1.08-.6-.19-.11-.37-.22-.56-.33-.11-.06-.22-.13-.33-.19-.04-.02-.08-.05-.13-.07-.02-.01-.04-.02-.06-.04-.06-.03-.12-.07-.18-.1-.11-.06-.21-.12-.31-.18-.03-.02-.06-.04-.09-.05-.06-.03-.11-.07-.17-.1-.08-.05-.08-.05-.17-.09-.1-.05-.16-.09-.23-.17-.06-.19-.07-.39-.09-.59-.01-.06-.01-.11-.02-.17-.01-.16-.02-.32-.04-.48 0-.04-.01-.08-.01-.12-.01-.17-.02-.34-.02-.51z" fill="#fefefe"/><path d="m18.7 25.66h7.63v.91c-2.52 0-5.04 0-7.63 0 0-.29 0-.6 0-.91z" fill="#676869"/><path d="m28 21.22h.16.42.44.74.86.74.44.41.15c.48 0 .48 0 .68.16.13.15.19.29.18.49-.06.18-.13.3-.28.42-.13.07-.24.08-.39.08-.04 0-.09 0-.13 0-.05 0-.1 0-.15 0s-.1 0-.15 0c-.14 0-.28 0-.42 0-.09 0-.17 0-.26 0-.3 0-.61 0-.91 0-.28 0-.56 0-.85 0-.24 0-.49 0-.73 0-.14 0-.29 0-.43 0s-.27 0-.41 0c-.05 0-.1 0-.15 0-.28 0-.5 0-.72-.2-.13-.15-.15-.29-.15-.48.02-.14.06-.22.15-.33.24-.17.48-.15.76-.14z" fill="#201f1f"/><path d="m27.72 19.08h.14.15.16.42.44.74.86.74.44.41.15.21.12c.17.02.29.08.4.21.12.17.12.33.09.54-.08.17-.19.25-.35.35-.11.02-.11.02-.23.02-.07 0-.07 0-.14 0-.05 0-.1 0-.15 0s-.11 0-.16 0c-.14 0-.29 0-.43 0-.15 0-.3 0-.45 0-.25 0-.5 0-.75 0-.29 0-.58 0-.87 0-.25 0-.5 0-.75 0-.15 0-.3 0-.45 0-.14 0-.28 0-.42 0-.05 0-.1 0-.15 0-.07 0-.14 0-.21 0-.04 0-.08 0-.12 0-.18-.03-.28-.12-.4-.25-.08-.17-.09-.32-.06-.51.12-.26.34-.36.62-.36z" fill="#1d1d1f"/><path d="m32.8 10.72h.04c.01.15.02.29.02.44 0 .04.01.08.01.12.01.3.01.3-.1.43-.09.07-.18.14-.28.2-.05.04-.11.08-.16.12s-.1.07-.15.11-.11.08-.16.12c-.03.02-.05.04-.08.06-.11.08-.21.15-.32.23-.03.02-.06.05-.1.07-.11.09-.2.19-.26.32 0 .05-.01.1-.01.15v.09.1.11.35.25c0 .22 0 .43-.01.65 0 .22 0 .44-.01.66 0 .43-.01.86-.01 1.3-.32 0-.65 0-.98 0-.01-.52-.02-1.04-.03-1.56 0-.24-.01-.48-.01-.73-.01-.23-.01-.47-.01-.7 0-.09 0-.18-.01-.27-.02-.68-.02-.68.11-.86.12-.12.26-.21.41-.28.09-.05.17-.1.25-.16.05-.04.11-.08.16-.11.06-.04.12-.08.18-.13.03-.02.06-.04.09-.06.13-.09.26-.18.38-.27.16-.12.33-.23.49-.35.03-.02.06-.05.1-.07.06-.04.13-.09.19-.13.04-.03.04-.03.09-.06.03-.02.05-.04.08-.05.05-.05.05-.05.09-.09z" fill="#666768"/><path d="m25.25 29.52c.34-.02.66.08.91.3.28.26.45.5.47.9.01.38-.08.69-.33.99-.27.28-.6.39-.98.4-.36-.01-.66-.15-.91-.4-.27-.33-.39-.69-.35-1.12.09-.36.29-.67.6-.88.18-.11.36-.17.59-.19z" fill="#fddfb6"/><path d="m31.97 29.76c.25.18.41.42.53.7.06.41.03.78-.22 1.12-.21.25-.45.45-.78.49-.31.02-.61.03-.88-.15-.04-.02-.04-.02-.07-.05-.27-.19-.47-.45-.54-.77-.06-.39 0-.73.22-1.05.44-.54 1.15-.64 1.74-.29z" fill="#fddfb6"/><path d="m15.07 29.77c.3.21.5.49.57.85.03.38-.04.72-.28 1.02-.26.28-.52.42-.9.44-.26 0-.49-.01-.71-.16-.02-.01-.05-.03-.07-.04-.26-.17-.45-.43-.53-.73-.04-.36-.05-.72.18-1.02.02-.03.04-.05.06-.08.41-.52 1.11-.64 1.68-.28z" fill="#fddfb7"/><path d="m20.51 29.74c.03.02.06.05.09.07s.06.04.09.06c.24.21.39.51.42.82.01.38-.06.69-.3.99-.27.27-.58.39-.96.39-.23 0-.42-.03-.62-.16-.04-.02-.04-.02-.07-.05-.27-.19-.47-.45-.54-.77-.06-.36-.01-.68.18-.99.39-.55 1.1-.71 1.71-.36z" fill="#fddfb6"/><path d="m20.91 19.89h.1.11.11.24.36.23.11c.22 0 .35.03.53.16.15.16.19.28.18.49-.02.17-.1.28-.22.38-.13.1-.22.12-.38.12-.03 0-.07 0-.1 0-.04 0-.07 0-.11 0s-.08 0-.12 0c-.08 0-.16 0-.24 0-.12 0-.25 0-.37 0-.08 0-.16 0-.24 0-.04 0-.07 0-.11 0-.22 0-.36-.02-.54-.16-.13-.17-.16-.3-.15-.51.03-.17.12-.26.24-.38.13-.08.22-.1.37-.1z" fill="#1d1d1f"/><path d="m7.07 5.37c.17.09.28.22.35.4.04.2.01.36-.11.53-.15.15-.28.25-.5.26-.23 0-.38-.12-.54-.28-.07-.19-.07-.36-.05-.55.17-.35.48-.47.85-.36z" fill="#1d1d20"/><path d="m25.73 17.68h6.33c.01.02.02.05.04.07-2.08 0-4.15 0-6.29 0v6.79c-.02.01-.05.02-.07.04-.01-2.28-.01-4.55-.01-6.9z" fill="#e8ce33"/><path d="m15.89 13.08h5.84v4.46c-2.56 0-5.13 0-7.77 0 .02-.07.05-.14.07-.21.03-.02.03-.02.07-.04-.01.05-.02.09-.04.14 2.52.01 5.04.02 7.63.04 0-1.44 0-2.88 0-4.36-1.91.01-3.83.02-5.8.04 0-.02 0-.05 0-.07z" fill="#a1d7dd"/><path d="m35.3 17.61c.12.01.17.03.25.11.11.17.14.3.14.5v.14.15.16.43.45.76.88.76.45.42.16c0 .27-.01.51-.08.77-.01 0-.02 0-.04 0 0-.03 0-.06 0-.09 0-.73.01-1.45.01-2.18 0-.35 0-.7 0-1.05 0-.31 0-.61 0-.92 0-.16 0-.32 0-.49 0-.15 0-.31 0-.46 0-.06 0-.11 0-.17 0-.08 0-.15 0-.23 0-.04 0-.09 0-.13-.03-.17-.1-.28-.24-.39 0 0-.02-.01-.04-.03z" fill="#232324"/><path d="m27.48 25.62h.13.07.25.18.48.5.95 1.08 2.23v.04c-1.96 0-3.92 0-5.94 0v.91h4.92v.04c-.65.01-1.29.01-1.94.02-.3 0-.6 0-.9.01-.26 0-.52 0-.78.01-.14 0-.28 0-.42 0-.13 0-.26 0-.39 0-.07 0-.14 0-.21 0-.06 0-.06 0-.13 0-.05 0-.05 0-.11 0-.08 0-.08 0-.12-.04 0-.07 0-.14 0-.21 0-.04 0-.09 0-.13s0-.09 0-.14c0-.04 0-.09 0-.14 0-.04 0-.09 0-.13s0-.08 0-.12c.02-.11.03-.11.15-.12z" fill="#333"/><path d="m20.91 19.89h.1.11.12.37.25.61v.11c-.6.01-1.21.02-1.83.04 0-.03 0-.07 0-.11.1-.03.17-.04.27-.04z" fill="#27221f"/><path d="m9.88 1.55c.16.05.29.11.44.18.04.02.07.04.11.06.03.01.06.03.08.04-.02.02-.05.05-.07.07-.15-.08-.3-.16-.46-.25-.01.12-.02.23-.03.35-.01 0-.02 0-.04 0-.01-.15-.02-.3-.03-.45z" fill="#0e0e0f"/><path d="m2.04 17.33c.04.12.03.19 0 .31-.03.14-.06.28-.07.43-.03 0-.07 0-.11 0 .04-.25.1-.49.18-.74z" fill="#efd636"/><path d="m29.85 28.9c.02.01.05.02.07.04-.16.16-.32.32-.49.49 0-.16.1-.24.21-.35.07-.07.14-.12.21-.18z" fill="#141415"/><path d="m6.89 10.86h.11c-.03.14-.07.26-.13.38-.02.03-.03.07-.05.1-.01.03-.02.05-.04.08-.02-.01-.05-.02-.07-.04l.03-.06c.08-.15.13-.28.15-.46z" fill="#f3dd36"/><path d="m10.02 2.64h.04c.01.15.02.3.04.46-.03.02-.07.05-.11.07.01-.18.02-.35.03-.53z" fill="#28282a"/><path d="m27.28 32.2c.01.02.02.05.04.07-.04.05-.08.09-.12.14-.03.04-.03.04-.07.08-.06.06-.06.06-.17.06.11-.11.21-.23.32-.35z" fill="#727273"/><path d="m4.61 18.91c.04.11.04.11.01.18-.01.02-.03.05-.04.08s-.03.05-.04.08c-.02.03-.02.03-.03.06-.04-.11-.04-.11-.04-.18h.07c.02-.07.04-.14.07-.22z" fill="#0b0c0d"/><path d="m5.06 4.96h.07c-.06.11-.11.23-.17.35-.01 0-.02 0-.04 0-.01-.12 0-.17.07-.27.02-.03.05-.06.07-.08z" fill="#f3e037"/><path d="m13.92 4.89c.02.01.05.02.07.04-.07.07-.15.14-.24.2-.02-.01-.05-.02-.07-.04.08-.06.16-.13.24-.2z" fill="#0d0d0d"/><path d="m5.84 3.97c.02.06.02.06.04.14-.06.06-.06.06-.11.11-.04-.01-.07-.02-.11-.04.06-.07.12-.14.18-.21z" fill="#fadf35"/><path d="m20.21 32.03v.11c-.15-.01-.3-.02-.46-.04 0-.01 0-.02 0-.04.06-.01.13-.01.19-.02.04 0 .07-.01.11-.01z" fill="#504940"/><path d="m4.25 8.26c.03.09.04.13 0 .22-.01.03-.01.03-.03.06-.02-.01-.05-.02-.07-.03.01-.11.01-.11.03-.21.03-.01.05-.03.07-.04z" fill="#eec834"/></svg>