<svg xmlns="http://www.w3.org/2000/svg" viewBox="0 0 450 421"><defs><clipPath id="a"><path fill="none" d="M0 0h450v421H0z"/></clipPath></defs><g clip-path="url(#a)"><path d="M438.51 226A45 45 0 00405 151h-87.34C326.31 124.75 330 89.92 330 75V60a60.07 60.07 0 00-60-60h-15a15 15 0 00-14.55 11.36l-8.17 32.69c-11.45 45.78-47.8 96.29-85.42 105.47A45.06 45.06 0 00105 121H15a15 15 0 00-15 15v270a15 15 0 0015 15h90a45 45 0 0040.62-25.65l51.54 17.18a164.64 164.64 0 0052.18 8.47H375a45 45 0 0041.84-61.58A45 45 0 00438.51 286a44.91 44.91 0 000-60M120 376a15 15 0 01-15 15H30V151h75a15 15 0 0115 15zm255-135h30a15 15 0 010 30h-30a15 15 0 000 30h30a15 15 0 010 30h-30a15 15 0 000 30 15 15 0 010 30H249.34a134.71 134.71 0 01-42.7-6.93L150 365.19V179.58c23.53-4.47 46.56-19.37 67.35-43.76 20.3-23.82 36.76-55.4 44-84.49L266.71 30H270a30 30 0 0130 30v15c0 20.14-6.3 58.77-14.36 76H255a15 15 0 000 30h150a15 15 0 010 30h-30a15 15 0 000 30" fill="#fbd542"/></g></svg>