<svg xmlns="http://www.w3.org/2000/svg" viewBox="0 0 438 512"><defs><clipPath id="a"><path fill="none" d="M0 0h438v512H0z"/></clipPath></defs><g clip-path="url(#a)" fill="#737373"><path d="M418 352a20 20 0 0020-20V80a80.09 80.09 0 00-80-80H80A80.09 80.09 0 000 80v352a80.09 80.09 0 0080 80h278a80.09 80.09 0 0080-80 20 20 0 00-40 0 40 40 0 01-40 40H80a40 40 0 01-40-40V80a40 40 0 0140-40h278a40 40 0 0140 40v252a20 20 0 0020 20"/><path d="M338 392h-80a20 20 0 000 40h80a20 20 0 000-40M100 240a20 20 0 000 40c11 0 21.08-8.95 21.08-20s-10-20-21.08-20M180 240a20 20 0 11-20 20 20 20 0 0120-20M259 240a20 20 0 11-20 20 20 20 0 0120-20M100 316a20 20 0 000 40c11 0 21-8.95 21-20s-10-20-21-20M180 316a20 20 0 11-20 20 20 20 0 0120-20M259 316a20 20 0 11-20 20 20 20 0 0120-20M338 240a20 20 0 11-20 20 20 20 0 0120-20M100 392a20 20 0 11-20 20 20 20 0 0120-20M338 316a20 20 0 11-20 20 20 20 0 0120-20M179 392a20 20 0 11-20 20 20 20 0 0120-20M338 80H100a20 20 0 00-20 20v80a20 20 0 0020 20h238a20 20 0 0020-20v-80a20 20 0 00-20-20m-20 80H120v-40h198z"/></g></svg>