<svg xmlns="http://www.w3.org/2000/svg" viewBox="0 0 512 391"><defs><clipPath id="a"><path fill="none" d="M0 0h512v391H0z"/></clipPath></defs><g clip-path="url(#a)"><path d="M492 231a20 20 0 0020-20V80a80.09 80.09 0 00-80-80H80A80.09 80.09 0 000 80v231a80.09 80.09 0 0080 80h352a80.09 80.09 0 0080-80 20 20 0 00-40 0 40 40 0 01-40 40H80a40 40 0 01-40-40V84.24l173.76 108a79.52 79.52 0 0084.49 0L472 84.24V211a20 20 0 0020 20m-214.88-72.69a39.71 39.71 0 01-42.24 0L56.69 47.51A39.83 39.83 0 0180 40h352a39.83 39.83 0 0123.31 7.51z" fill="#737373"/></g></svg>