<svg xmlns="http://www.w3.org/2000/svg" viewBox="0 0 414.23 512"><defs><clipPath id="a"><path fill="none" d="M0 0h414.23v512H0z"/></clipPath></defs><g clip-path="url(#a)" fill="#282828"><path d="M377.07 89C338 32.45 276 0 207.12 0S76.26 32.45 37.18 89C-1.72 145.3-10.7 216.56 13.1 279.52c6.37 17.19 16.49 33.89 30 49.54L193.49 505.7a17.89 17.89 0 0027.26 0l150.34-176.59c13.58-15.74 23.69-32.43 30-49.48C424.94 216.56 416 145.3 377.07 89m-9.5 178.07c-4.87 13.16-12.82 26.17-23.62 38.68a.39.39 0 00-.08.1L207.12 466.49 70.29 305.77C59.5 293.27 51.55 280.26 46.63 267 27 214.91 34.42 156 66.62 109.38s83.52-73.58 140.5-73.58 108.18 26.82 140.49 73.58 39.69 105.53 20 157.71"/><path d="M207.12 106.22a100.25 100.25 0 10100.25 100.25 100.36 100.36 0 00-100.25-100.25m0 164.7a64.45 64.45 0 1164.45-64.45 64.52 64.52 0 01-64.45 64.45"/></g></svg>