<svg enable-background="new 0 0 36 36" viewBox="0 0 36 36" xmlns="http://www.w3.org/2000/svg"><path d="m19.55.31c.08.04.16.08.24.12 1.25.66 1.91 1.66 2.57 3 .07.14.14.27.21.41s.14.29.21.43c.14.28.28.57.42.85.03.07.03.07.07.14.05.09.09.19.14.28l.21.42c.36.71.72 1.43 1.08 2.14.32.64.64 1.28.96 1.92.35.69.69 1.38 1.05 2.07.5.97.98 1.94 1.47 2.92.24.47.47.95.71 1.42.02.05.05.09.07.14.38.76.76 1.51 1.14 2.27.32.64.64 1.28.96 1.92.35.69.69 1.38 1.05 2.07.5.97.98 1.94 1.47 2.92.17.34.34.68.51 1.01.12.24.24.47.36.71.21.43.43.86.65 1.29.7 1.36 1.09 2.53.83 4.14-.32 1.18-.97 2.09-1.92 2.67-.51.27-.92.41-1.48.41-.05 0-.1 0-.15 0-.17 0-.34 0-.51 0-.12 0-.25 0-.37 0-.34 0-.68 0-1.02 0-.37 0-.73 0-1.1 0-.89 0-1.77 0-2.66 0-.42 0-.83 0-1.25 0-1.39 0-2.77 0-4.16 0-.36 0-.72 0-1.08 0-.09 0-.18 0-.27 0-1.45 0-2.9 0-4.35.01-1.49 0-2.97 0-4.46 0-.83 0-1.67 0-2.5 0-.71 0-1.42 0-2.13 0-.36 0-.73 0-1.09 0-.33 0-.66 0-1 0-.12 0-.24 0-.36 0-1.18.01-2.15-.31-3.04-1.25-.72-.86-1-1.85-1.01-3.02 0-.07 0-.13 0-.2.01-.94.36-1.73.77-2.52.06-.13.06-.13.13-.26.13-.27.27-.53.4-.8l.12-.24c.16-.31.32-.63.48-.94.31-.61.62-1.23.93-1.84.02-.05.05-.09.07-.14.17-.33.33-.67.5-1l.57-1.14c.01-.05.04-.09.06-.14.36-.72.73-1.44 1.09-2.16.46-.89.9-1.79 1.35-2.68.24-.47.47-.95.71-1.42.02-.05.05-.09.07-.14.55-1.11 1.11-2.21 1.67-3.31.52-1.03 1.04-2.06 1.55-3.09.38-.76.76-1.52 1.15-2.28.3-.59.6-1.18.89-1.77.21-.42.42-.84.63-1.25.04-.09.09-.18.14-.27.13-.26.26-.52.39-.77.04-.08.08-.15.11-.23.71-1.39 1.54-2.4 2.9-2.93.88-.26 2.01-.3 2.85.11zm-1.92 4.46c-.15.25-.16.38-.11.67.11.2.11.2.28.32.26.05.37.04.59-.13.15-.25.16-.38.11-.67-.11-.2-.11-.2-.28-.32-.26-.05-.38-.04-.59.13z" fill="#fecb40"/><path d="m17.44 14.65c.04.02.09.04.13.06.28.12.56.25.84.39.14.07.29.14.43.2.49.23.94.47 1.34.88l.15.15c.6.76.76 1.69.89 2.67.02.12.03.23.05.35.04.3.08.61.12.91s.08.61.12.91c.05.35.1.71.15 1.06.1.76.21 1.52.34 2.28.05.32.1.62.08.95.06.02.12.05.18.07.22.08.44.17.66.25.02-.04.03-.09.05-.14.13-.25.24-.41.44-.59.56 0 1.04.28 1.53.55.05.02.09.05.14.08 1.05.59 1.82 1.47 2.59 2.46.18.22.36.43.56.63.34.34.66.7.98 1.07.06.07.13.14.19.22.13.15.26.3.4.45.17.19.34.39.51.58.16.18.32.37.49.55l.18.21c.08.1.08.1.17.19.07.08.07.08.15.17.15.19.18.27.2.53-.02.28-.06.38-.23.57-.23.09-.39.09-.63.09-.09 0-.18 0-.27 0-.1 0-.2 0-.29 0-.1 0-.21 0-.31 0-.28 0-.56 0-.84 0-.17 0-.35 0-.52 0-.54 0-1.09 0-1.63 0-.63 0-1.26 0-1.89 0-.49 0-.97 0-1.46 0-.29 0-.58 0-.87 0-.27 0-.55 0-.82 0-.1 0-.2 0-.3 0-.14 0-.27 0-.41 0-.08 0-.15 0-.23 0-.22-.03-.32-.09-.48-.27-.07-.26-.11-.38-.07-.64.37-.67 1.01-1.24 1.5-1.8.09-.11.18-.21.28-.32.22-.26.45-.51.67-.77-.09-.23-.19-.4-.35-.57-.04-.05-.08-.09-.12-.14s-.08-.09-.13-.14c-.08-.09-.17-.19-.25-.28-.04-.04-.07-.08-.11-.12-.13-.15-.16-.27-.19-.47.05-.42.29-.68.53-1-1.04-.6-2.1-1.18-3.16-1.76.11.26.24.49.38.74.22.38.36.75.46 1.19.02.08.05.16.07.24.01.17.02.34.02.51 0 .13 0 .13.01.27-.06 1.08-.59 2.08-1 3.02-.11.25-.22.51-.33.77-.07.16-.14.32-.21.49-.03.08-.07.15-.1.23-.12.28-.23.51-.43.73-.3.11-.59.11-.91.11-.07 0-.14 0-.21 0-.15 0-.29 0-.44 0-.22 0-.44 0-.67.01-.14 0-.28 0-.42 0-.07 0-.13 0-.2 0-.31 0-.47-.02-.73-.22-.16-.27-.17-.39-.13-.71.07-.21.07-.21.18-.42.06-.12.06-.12.12-.24.04-.08.09-.17.13-.25.04-.09.09-.17.13-.26.23-.46.47-.92.7-1.38.04-.09.09-.17.14-.26.09-.17.17-.33.26-.5.04-.08.08-.15.12-.23.03-.07.07-.13.1-.2.08-.17.13-.31.15-.5-.11-.18-.21-.33-.34-.49-.07-.09-.14-.19-.22-.28-.04-.05-.07-.09-.11-.14-.15-.19-.29-.4-.44-.6-.05-.07-.1-.14-.15-.21-.18-.26-.36-.53-.54-.79-.09-.14-.09-.14-.24-.21-.02.08-.02.08-.05.16-.13.34-.3.65-.47.97-.04.07-.07.14-.11.21-.34.64-.68 1.27-1.02 1.9-.22.4-.44.81-.65 1.21-.14.26-.28.53-.43.79-.17.32-.34.63-.51.95-.12.22-.24.44-.36.67-.04.08-.09.16-.13.25-.04.08-.08.15-.12.23-.04.07-.07.13-.11.2-.15.22-.3.31-.54.34-.05 0-.11 0-.16 0-.06 0-.12 0-.19 0-.1 0-.1 0-.2 0-.07 0-.14 0-.21 0-.15 0-.29 0-.44 0-.22 0-.44 0-.67.01-.14 0-.28 0-.42 0-.07 0-.13 0-.2 0-.31 0-.47-.01-.73-.22-.16-.27-.18-.39-.13-.71.09-.22.09-.22.22-.45.05-.08.09-.17.14-.26l.15-.27c.05-.09.1-.19.16-.28.1-.19.21-.38.31-.56.13-.23.25-.46.38-.68.24-.43.47-.85.71-1.28.49-.88.97-1.77 1.45-2.66.31-.58.62-1.15.94-1.72.3-.53.59-1.07.88-1.6.07-.12.07-.12.14-.25.04-.08.08-.16.13-.24.04-.07.08-.14.11-.21.11-.2.21-.4.32-.6-.05-.02-.11-.04-.16-.06-.35-.14-.67-.32-1.01-.5-.1-.05-.1-.05-.2-.11-.06-.03-.13-.07-.19-.1s-.12-.06-.18-.09c-.24-.17-.34-.33-.41-.64-.01-.08-.02-.16-.03-.24-.02-.13-.02-.13-.04-.27-.01-.09-.02-.18-.03-.28-.02-.18-.05-.36-.07-.55-.01-.08-.02-.16-.03-.24-.03-.21-.03-.21-.1-.45-.07-.82.11-1.41.53-2.06.46-.49.98-.73 1.59-.86.1-.02.1-.02.21-.05.25-.05.5-.1.75-.15.1-.02.21-.04.31-.06.28-.06.57-.11.85-.17.11-.02.22-.04.34-.07 1.06-.19 2.01-.29 3.05.16z" fill="#272625"/><path d="m19.55.31c.08.04.16.08.24.12 1.25.66 1.91 1.66 2.57 3 .07.14.14.27.21.41s.14.29.21.43c.14.28.28.57.42.85.03.07.03.07.07.14.05.09.09.19.14.28l.21.42c.36.71.72 1.43 1.08 2.14.32.64.64 1.28.96 1.92.35.69.69 1.38 1.05 2.07.5.97.98 1.94 1.47 2.92.24.47.47.95.71 1.42.02.05.05.09.07.14.38.76.76 1.51 1.14 2.27.32.64.64 1.28.96 1.92.35.69.69 1.38 1.05 2.07.5.97.98 1.94 1.47 2.92.17.34.34.68.51 1.01.12.24.24.47.36.71.21.43.43.86.65 1.29.7 1.36 1.09 2.53.83 4.14-.32 1.18-.97 2.09-1.92 2.67-.51.27-.92.41-1.48.41-.05 0-.1 0-.15 0-.17 0-.34 0-.51 0-.12 0-.25 0-.37 0-.34 0-.68 0-1.02 0-.37 0-.73 0-1.1 0-.89 0-1.77 0-2.66 0-.42 0-.83 0-1.25 0-1.39 0-2.77 0-4.16 0-.36 0-.72 0-1.08 0-.09 0-.18 0-.27 0-1.45 0-2.9 0-4.35.01-1.49 0-2.97 0-4.46 0-.83 0-1.67 0-2.5 0-.71 0-1.42 0-2.13 0-.36 0-.73 0-1.09 0-.33 0-.66 0-1 0-.12 0-.24 0-.36 0-1.18.01-2.15-.31-3.04-1.25-.72-.86-1-1.85-1.01-3.02 0-.07 0-.13 0-.2.01-.94.36-1.73.77-2.52.06-.13.06-.13.13-.26.13-.27.27-.53.4-.8l.12-.24c.16-.31.32-.63.48-.94.31-.61.62-1.23.93-1.84.02-.05.05-.09.07-.14.17-.33.33-.67.5-1l.57-1.14c.01-.05.04-.09.06-.14.36-.72.73-1.44 1.09-2.16.46-.89.9-1.79 1.35-2.68.24-.47.47-.95.71-1.42.02-.05.05-.09.07-.14.55-1.11 1.11-2.21 1.67-3.31.52-1.03 1.04-2.06 1.55-3.09.38-.76.76-1.52 1.15-2.28.3-.59.6-1.18.89-1.77.21-.42.42-.84.63-1.25.04-.09.09-.18.14-.27.13-.26.26-.52.39-.77.04-.08.08-.15.11-.23.71-1.39 1.54-2.4 2.9-2.93.88-.26 2.01-.3 2.85.11zm-4.14 2.4c-.18.28-.33.56-.47.86-.1.21-.21.42-.32.63-.49.97-.98 1.94-1.46 2.91-.37.73-.74 1.46-1.11 2.19-.31.61-.62 1.23-.92 1.85-.31.64-.64 1.27-.96 1.9-.28.54-.55 1.09-.82 1.64-.31.62-.62 1.24-.93 1.86-.36.69-.71 1.39-1.06 2.09-.02.05-.05.09-.07.14-.12.24-.24.48-.36.71-.24.47-.47.95-.71 1.42-.03.05-.05.09-.08.14-.55 1.11-1.11 2.21-1.67 3.31-.54 1.07-1.09 2.15-1.62 3.23-.24.48-.48.95-.72 1.42-.05.09-.1.19-.15.28-.09.18-.18.36-.27.53-.46.9-.72 1.7-.5 2.76.29.88.84 1.54 1.57 1.95.31.14.58.15.91.15h.15.5.36 1 1.08 2.61 1.23 4.09 1.06.27c1.43 0 2.85 0 4.28.01h4.39 2.46 2.1 1.07.98.35c.99.01 1.75-.17 2.49-.97.44-.53.66-1.27.68-1.99 0-.09.01-.18.01-.28-.04-.78-.49-1.52-.83-2.17-.09-.17-.17-.34-.26-.51-.05-.09-.09-.17-.14-.26-.21-.41-.42-.83-.63-1.25-.37-.75-.75-1.5-1.14-2.25-.36-.69-.7-1.39-1.05-2.09-.27-.55-.54-1.09-.82-1.63-.36-.69-.71-1.39-1.06-2.09-.02-.05-.05-.09-.07-.14-.12-.24-.24-.48-.36-.71-.24-.47-.47-.95-.71-1.42-.02-.05-.05-.09-.07-.14-.38-.76-.76-1.51-1.14-2.27-.32-.64-.64-1.28-.96-1.92-.35-.69-.69-1.38-1.05-2.07-.5-.97-.98-1.94-1.47-2.92-.14-.28-.28-.57-.43-.85-.02-.05-.05-.09-.07-.14-.12-.23-.23-.47-.35-.7-.21-.42-.42-.84-.63-1.26-.07-.14-.14-.28-.21-.42-.09-.17-.17-.35-.26-.52-.54-1.08-1.21-1.89-2.27-2.26-1.3-.38-2.53.09-3.46 1.25z" fill="#252525"/><path d="m17.41 16.01c.19.1.39.19.59.28.15.07.29.14.44.21.07.03.14.07.21.1.54.27.94.52 1.18 1.17.07.28.11.56.15.85.02.13.02.13.04.27.03.21.06.43.1.64.06.4.12.79.18 1.19.06.38.12.77.17 1.15.03.19.06.39.09.58.04.28.08.55.12.83.01.08.03.17.04.25.06.38.1.74.09 1.13-.4-.09-.74-.16-1.05-.48-.06-.21-.09-.38-.11-.59-.01-.06-.02-.12-.02-.18-.03-.2-.05-.4-.07-.59-.02-.14-.03-.28-.05-.43-.06-.53-.13-1.05-.18-1.58-.03-.23-.05-.45-.08-.68-.01-.07-.01-.14-.02-.21-.05-.41-.13-.75-.29-1.11-.13-.09-.13-.09-.28-.1-.05-.01-.09-.01-.14-.02-.22.05-.28.16-.42.35-.11.25-.21.51-.3.76-.03.07-.05.15-.08.22-.09.24-.17.47-.26.71s-.17.47-.26.71c-.05.15-.11.29-.16.44-.02.07-.05.13-.07.2-.03.09-.03.09-.06.18-.06.14-.06.14-.2.22-.2-.09-.4-.19-.59-.3-.06-.03-.12-.06-.18-.1-.12-.07-.25-.13-.37-.2-.19-.1-.38-.21-.57-.31-.12-.07-.24-.13-.36-.2-.09-.05-.09-.05-.17-.09-.05-.03-.11-.06-.16-.09s-.09-.05-.14-.08c-.17-.05-.17-.05-.24-.29.08-.18.08-.18.2-.4.04-.08.09-.16.13-.24.07-.13.07-.13.15-.26.05-.09.1-.17.15-.26.22-.39.43-.78.66-1.16.03-.06.07-.12.1-.17.06-.1.12-.21.18-.31.17-.31.24-.52.2-.88-.12-.27-.12-.27-.39-.3-.34-.03-.64.03-.97.1-.06.01-.12.03-.18.04-.13.03-.26.06-.38.09-.19.05-.39.09-.59.13-.12.03-.25.06-.37.09-.06.01-.12.03-.18.04-.32.08-.53.14-.73.46-.05.46.06.86.18 1.3.03.13.07.25.1.38.01.06.03.11.04.17.03.15.03.15.03.39-.1-.03-.19-.07-.29-.11-.05-.02-.11-.04-.16-.06-.06-.03-.12-.05-.18-.08-.07-.02-.15-.05-.22-.07-.27-.23-.28-.42-.34-.79-.01-.08-.02-.16-.03-.24s-.02-.16-.03-.24c-.15-1.07-.15-1.07.04-1.48.37-.52.7-.62 1.27-.73.07-.02.15-.03.22-.05.23-.05.47-.1.7-.14.16-.03.31-.07.47-.1 2.51-.53 2.51-.53 3.7.07z" fill="#e75e46"/><path d="m13.23 22.1c.36.05.66.23.99.41l.18.1.39.21c.2.11.39.21.59.32.13.07.25.14.38.2.06.03.12.06.18.1.8.44.8.44 1 .77.03.05.07.11.1.16.03.06.07.12.1.17.07.12.15.25.22.37.04.06.08.13.11.19.11.19.23.37.35.56.04.06.08.12.11.18.07.11.14.22.21.34.44.69.66 1.3.56 2.16-.21.76-.57 1.48-.88 2.19-.08.19-.17.38-.25.56-.05.12-.11.24-.16.36-.02.06-.05.11-.07.17-.17.39-.17.39-.25.48-.11.01-.22.01-.33.01-.07 0-.13 0-.2 0s-.14 0-.21 0-.14 0-.21 0c-.17 0-.35 0-.52 0 .37-.9.81-1.75 1.25-2.61.04-.08.08-.15.12-.23.06-.13.13-.25.2-.37.17-.3.24-.52.19-.88-.09-.19-.09-.19-.23-.37-.05-.07-.1-.14-.16-.21s-.11-.15-.17-.23c-.09-.12-.18-.24-.27-.36-.06-.09-.13-.17-.19-.26-.27-.37-.55-.74-.82-1.12-.04-.06-.08-.12-.13-.17-.19-.26-.37-.52-.55-.78-.06-.08-.11-.16-.17-.24-.05-.07-.1-.14-.15-.21-.15-.2-.22-.23-.46-.26-.28.03-.32.11-.5.35-.08.14-.16.27-.23.41-.04.08-.09.16-.13.25-.05.09-.09.18-.14.27s-.1.19-.15.28c-.1.19-.21.39-.31.58-.24.44-.48.89-.72 1.33-.09.17-.19.35-.28.52-.05.09-.09.17-.14.26-.19.35-.38.71-.57 1.06-.09.17-.19.35-.29.52-.23.41-.44.82-.63 1.26-.49 1.1-.49 1.1-.87 1.25-.44.07-.86.02-1.29-.07.09-.29.2-.53.35-.79.04-.08.08-.15.13-.23.04-.08.09-.16.14-.25.1-.17.19-.35.29-.52.05-.09.1-.18.15-.27.23-.41.45-.82.67-1.23.09-.16.18-.32.26-.48.04-.08.09-.16.13-.24.13-.24.26-.48.39-.72.04-.08.09-.16.13-.24.09-.16.18-.32.26-.48.22-.41.44-.81.67-1.22.45-.83.9-1.65 1.36-2.47.16-.25.32-.54.47-.84z" fill="#e75e46"/><path d="m21.45 9.57c.55.47.94 1.08 1.05 1.88.06.98-.13 1.71-.67 2.47-.42.52-.95.85-1.58.89-.06 0-.12.01-.18.02-.72.04-1.29-.25-1.84-.77-.48-.5-.76-1.13-.8-1.87-.01-.96.23-1.69.8-2.39.89-.99 2.22-1 3.22-.23z" fill="#272625"/><path d="m25.79 27.95c.26.12.43.31.63.54.03.04.07.08.1.12.11.13.22.25.33.38.08.09.15.18.23.26.16.18.32.37.48.55.21.24.41.47.62.71.16.18.32.36.47.54.08.09.15.17.23.26.11.12.21.24.32.36l.18.21c.13.16.13.16.13.24-2.41 0-4.82 0-7.3 0 .25-.33.49-.65.76-.96.06-.07.13-.14.19-.22.07-.08.14-.15.2-.23.07-.08.14-.16.21-.24.18-.21.37-.42.55-.63.19-.21.38-.43.56-.64.38-.42.74-.83 1.11-1.25z" fill="#989999"/><path d="m18.71 3.43c.46.29.83.7.98 1.29.09.64-.03 1.15-.35 1.68-.33.43-.73.67-1.22.75-.42.02-.75-.05-1.09-.35-.47-.5-.7-.9-.73-1.63.01-.54.13-.88.45-1.27.58-.61 1.2-.85 1.96-.47zm-1.08 1.34c-.15.25-.16.38-.11.67.11.2.11.2.28.32.26.05.37.04.59-.13.15-.25.16-.38.11-.67-.11-.2-.11-.2-.28-.32-.26-.05-.38-.04-.59.13z" fill="#272625"/><path d="m20.73 10.53c.31.24.52.59.64.99.06.54-.03.98-.28 1.44-.27.35-.58.53-.99.58-.41.02-.71-.07-1.05-.34-.35-.36-.49-.78-.52-1.31.01-.39.1-.7.31-1.01.58-.6 1.18-.75 1.89-.35z" fill="#e55d46"/><path d="m23.76 26.51c.37.21.74.42 1.12.64-.37.51-.78.98-1.19 1.44-.23-.11-.37-.25-.54-.45-.04-.05-.09-.1-.13-.15-.03-.04-.06-.08-.1-.12.23-.51.52-.92.84-1.36z" fill="#cac9c9"/><path d="m18.21 21.78c.05.03.09.05.14.08.11.52.16 1.06.14 1.6-.23-.13-.46-.26-.7-.4.13-.44.26-.86.42-1.28z" fill="#f0c23c"/><path d="m14 18.42c-.31.56-.31.56-.63 1.12-.05-.03-.09-.05-.14-.08-.09-.34-.14-.6-.14-.96.1-.03.2-.06.3-.09.06-.02.11-.03.17-.05.16-.02.16-.02.44.06z" fill="#f2c13b"/></svg>