<svg xmlns="http://www.w3.org/2000/svg" viewBox="0 0 507.57 330"><defs><clipPath id="a"><path fill="none" d="M0 0h507.57v330H0z"/></clipPath></defs><g clip-path="url(#a)" fill="#737373"><path d="M161.56 90a75 75 0 1075 75 75.09 75.09 0 00-75-75m0 120a45 45 0 1145-45 45.05 45.05 0 01-45 45"/><path d="M492.57 210h-166v-45c0-5.06-.25-10.06-.69-15h15.69a15 15 0 0015-15V75a45 45 0 00-45-45h-55.25a164.07 164.07 0 00-94.75-30C83.84 0 18.42 53.37.45 125.18a15.007 15.007 0 0029.09 7.39C44.15 74 97.41 30.35 160.81 30c74.66-.4 135.76 61.71 135.76 136.38V300h-135c-63.65 0-117.22-43.62-132-102.33a15 15 0 10-29.12 7.15C18.42 276.63 83.84 330 161.57 330h150a15 15 0 0015-15v-15h151v14.58A15.27 15.27 0 00491.84 330a15 15 0 0015.73-15v-90a15 15 0 00-15-15m-172.24-90a164.84 164.84 0 00-31.58-60h22.82a15 15 0 0115 15v45zm96.24 150h-90v-30h90zm61 0h-31v-30h31z"/></g></svg>